:FULLY-SPECIFIED
:FORCE-ALL-JOINTS-BE-3DOF
:DEGREES
204
root 4.85893 15.1788 -25.48 7.38867 1.61416 4.72715
lfemur 3.86261 -4.45344 2.62134
ltibia 8.28076 -0 0
lfoot -30.7705 -13.7968 -0.302612
ltoes 49.4239 -0 0
rfemur -29.2487 -18.663 -7.7842
rtibia 49.5158 -0 0
rfoot -27.1536 14.3751 -0.0170588
rtoes 58.5646 -0 0
lowerback -2.13157 -1.94851 -0.832638
upperback -0.639579 -2.55133 -6.77598
thorax 0.26197 -1.2912 -6.63481
lowerneck -11.3114 0.15435 5.4428
upperneck 3.40166 -0.748485 2.64893
head 3.11023 -0.175407 -0.139802
lclavicle 1.22713e-14 8.54038e-15 1.73745e-30
lhumerus -58.1916 -44.6291 115.588
lradius 54.946 -0 0
lwrist 24.3152 0 0
lhand 37.8437 29.4052 0.0153401
lfingers 7.12502 -0 0
lthumb 60.566 42.432 -0.0174235
rclavicle 1.22713e-14 8.54038e-15 1.73745e-30
rhumerus -13.6508 -8.72433 -22.5797
rradius 84.53 -0 0
rwrist -21.8036 0 0
rhand -31.7623 -49.4792 7.82184
rfingers 7.12502 -0 0
rthumb -7.92956 63.4174 -16.3933
205
root 4.82777 15.1466 -25.4953 7.46285 1.11874 4.74087
lfemur 4.05728 -4.29177 2.51663
ltibia 8.34284 -0 0
lfoot -31.6768 -13.0563 -0.250383
ltoes 49.1402 -0 0
rfemur -29.9915 -19.1795 -7.58482
rtibia 50.0499 -0 0
rfoot -27.196 15.2667 -0.0141163
rtoes 58.959 -0 0
lowerback -1.99645 -1.89395 -0.806186
upperback -0.650175 -2.48688 -6.78727
thorax 0.180315 -1.26046 -6.65359
lowerneck -11.1977 0.322231 5.70697
upperneck 3.36796 -0.543375 2.50938
head 3.07565 -0.0776158 -0.218502
lclavicle 9.43039e-15 9.89867e-15 1.43802e-30
lhumerus -58.5228 -44.8528 115.865
lradius 55.0012 -0 0
lwrist 24.6599 0 0
lhand 37.5614 29.2845 0.0126959
lfingers 7.12502 -0 0
lthumb 60.3292 42.5955 -0.0144201
rclavicle 9.43039e-15 9.89867e-15 1.43802e-30
rhumerus -12.4083 -13.8267 -21.0891
rradius 81.3524 -0 0
rwrist -22.0422 0 0
rhand -36.6253 -52.926 6.41689
rfingers 7.12502 -0 0
rthumb -12.5497 70.5944 -13.2908
206
root 4.79959 15.1176 -25.5091 7.52984 0.670661 4.75272
lfemur 4.23304 -4.14525 2.42242
ltibia 8.39899 -0 0
lfoot -32.496 -12.3872 -0.19306
ltoes 48.8835 -0 0
rfemur -30.667 -19.6445 -7.39785
rtibia 50.5329 -0 0
rfoot -27.2344 16.073 -0.0108864
rtoes 59.3157 -0 0
lowerback -1.87423 -1.84466 -0.782153
upperback -0.659768 -2.42859 -6.79749
thorax 0.106456 -1.23267 -6.67061
lowerneck -11.0943 0.473613 5.94618
upperneck 3.33706 -0.357945 2.38306
head 3.04426 0.0107879 -0.289731
lclavicle 6.86103e-15 1.11271e-14 1.10921e-30
lhumerus -58.8249 -45.0541 116.119
lradius 55.0512 -0 0
lwrist 24.9716 0 0
lhand 37.3061 29.1754 0.00979236
lfingers 7.12502 -0 0
lthumb 60.1151 42.7433 -0.0111224
rclavicle 6.86103e-15 1.11271e-14 1.10921e-30
rhumerus -11.3775 -18.4667 -19.8081
rradius 78.4786 -0 0
rwrist -22.258 0 0
rhand -40.9324 -55.9227 4.90297
rfingers 7.12502 -0 0
rthumb -16.3132 76.7747 -10.0342
207
root 4.77505 15.0923 -25.5212 7.58809 0.280451 4.76261
lfemur 4.38588 -4.01743 2.34076
ltibia 8.44788 -0 0
lfoot -33.2087 -11.8054 -0.135365
ltoes 48.66 -0 0
rfemur -31.2582 -20.0478 -7.22981
rtibia 50.9536 -0 0
rfoot -27.2678 16.7753 -0.00763357
rtoes 59.6263 -0 0
lowerback -1.76779 -1.80177 -0.761139
upperback -0.66813 -2.37783 -6.8064
thorax 0.0421313 -1.20849 -6.68546
lowerneck -11.0037 0.605087 6.15472
upperneck 3.30982 -0.196524 2.27298
head 3.01684 0.0877411 -0.351799
lclavicle 4.62352e-15 1.21969e-14 7.77989e-31
lhumerus -59.0898 -45.2287 116.341
lradius 55.0947 -0 0
lwrist 25.2431 0 0
lhand 37.0838 29.0804 0.00686788
lfingers 7.12502 -0 0
lthumb 59.9287 42.872 -0.00780075
rclavicle 4.62352e-15 1.21969e-14 7.77989e-31
rhumerus -10.5456 -22.5243 -18.7344
rradius 75.9759 -0 0
rwrist -22.4459 0 0
rhand -44.6071 -58.4282 3.40703
rfingers 7.12502 -0 0
rthumb -19.2597 81.9271 -6.89514
208
root 4.75481 15.0714 -25.5311 7.63608 -0.0413707 4.77047
lfemur 4.51177 -3.91185 2.27369
ltibia 8.4882 -0 0
lfoot -33.7961 -11.326 -0.0823334
ltoes 48.4757 -0 0
rfemur -31.7478 -20.3791 -7.08759
rtibia 51.3005 -0 0
rfoot -27.2952 17.3543 -0.00464411
rtoes 59.8824 -0 0
lowerback -1.67999 -1.76644 -0.743749
upperback -0.675032 -2.33597 -6.81375
thorax -0.0109228 -1.18857 -6.69772
lowerneck -10.9286 0.713266 6.32686
upperneck 3.28711 -0.0634405 2.18215
head 2.99416 0.151183 -0.403015
lclavicle 2.7782e-15 1.30792e-14 4.73392e-31
lhumerus -59.3096 -45.3721 116.526
lradius 55.1305 -0 0
lwrist 25.467 0 0
lhand 36.9005 29.002 0.00417873
lfingers 7.12502 -0 0
lthumb 59.775 42.9782 -0.00474636
rclavicle 2.7782e-15 1.30792e-14 4.73392e-31
rhumerus -9.90308 -25.881 -17.8722
rradius 73.9118 -0 0
rwrist -22.6009 0 0
rhand -47.5825 -60.4165 2.05583
rfingers 7.12502 -0 0
rthumb -21.4571 86.0288 -4.12079
209
root 4.73953 15.0556 -25.5386 7.67227 -0.284277 4.77622
lfemur 4.60669 -3.83207 2.22322
ltibia 8.51864 -0 0
lfoot -34.239 -10.9647 -0.0390677
ltoes 48.3366 -0 0
rfemur -32.1187 -20.6283 -6.97805
rtibia 51.5623 -0 0
rfoot -27.316 17.7914 -0.00220385
rtoes 60.0758 -0 0
lowerback -1.61372 -1.73979 -0.730588
upperback -0.680245 -2.30438 -6.81931
thorax -0.0509688 -1.17353 -6.70699
lowerneck -10.8717 0.794765 6.45688
upperneck 3.26984 0.0369794 2.11355
head 2.977 0.199053 -0.441688
lclavicle 1.38542e-15 1.37451e-14 2.24675e-31
lhumerus -59.4763 -45.48 116.667
lradius 55.1576 -0 0
lwrist 25.6359 0 0
lhand 36.7621 28.9429 0.00198312
lfingers 7.12502 -0 0
lthumb 59.6589 43.0583 -0.00225253
rclavicle 1.38542e-15 1.37451e-14 2.24675e-31
rhumerus -9.44329 -28.4201 -17.2325
rradius 72.3539 -0 0
rwrist -22.7179 0 0
rhand -49.7949 -61.8684 0.969184
rfingers 7.12502 -0 0
rthumb -22.9772 89.0453 -1.9283
210
root 4.72988 15.0457 -25.5433 7.69513 -0.437742 4.77977
lfemur 4.66661 -3.78162 2.19141
ltibia 8.53787 -0 0
lfoot -34.5187 -10.7366 -0.0102925
ltoes 48.2487 -0 0
rfemur -32.3535 -20.7855 -6.90786
rtibia 51.7277 -0 0
rfoot -27.329 18.0675 -0.000580644
rtoes 60.1979 -0 0
lowerback -1.57185 -1.72295 -0.722258
upperback -0.68354 -2.28442 -6.82282
thorax -0.0762696 -1.16404 -6.71286
lowerneck -10.8357 0.846184 6.53906
upperneck 3.25887 0.100408 2.0702
head 2.96615 0.22929 -0.466127
lclavicle 5.055e-16 1.41659e-14 5.91988e-32
lhumerus -59.582 -45.548 116.756
lradius 55.1747 -0 0
lwrist 25.7427 0 0
lhand 36.6747 28.9055 0.000522494
lfingers 7.12502 -0 0
lthumb 59.5856 43.1089 -0.000593478
rclavicle 5.055e-16 1.41659e-14 5.91988e-32
rhumerus -9.1638 -30.0266 -16.8323
rradius 71.3697 -0 0
rwrist -22.7917 0 0
rhand -51.1779 -62.7634 0.254227
rfingers 7.12502 -0 0
rthumb -23.8765 90.9192 -0.503448
211
root 4.72652 15.0422 -25.545 7.70309 -0.491237 4.781
lfemur 4.68749 -3.76403 2.18034
ltibia 8.54457 0 0
lfoot -34.6162 -10.6571 0
ltoes 48.2181 0 0
rfemur -32.4355 -20.8402 -6.88321
rtibia 51.7854 0 0
rfoot -27.3336 18.1638 0
rtoes 60.2405 0 0
lowerback -1.55725 -1.71709 -0.719351
upperback -0.684689 -2.27746 -6.82404
thorax -0.0850889 -1.16073 -6.7149
lowerneck -10.8231 0.864097 6.56772
upperneck 3.25503 0.122515 2.05509
head 2.96236 0.239828 -0.474647
lclavicle 1.98785e-16 1.43125e-14 0
lhumerus -59.6189 -45.5717 116.787
lradius 55.1807 0 0
lwrist 25.7799 0 0
lhand 36.6442 28.8925 0
lfingers 7.12502 0 0
lthumb 59.5601 43.1265 0
rclavicle 1.98785e-16 1.43125e-14 0
rhumerus -9.06837 -30.5869 -16.6934
rradius 71.0267 0 0
rwrist -22.8175 0 0
rhand -51.6573 -63.0713 0
rfingers 7.12502 0 0
rthumb -24.1789 -628.433 0
212
root 4.7285 15.0451 -25.5474 7.73201 -0.399207 4.70593
lfemur 4.42651 -3.51977 2.25844
ltibia 8.8405 -0 0
lfoot -34.4787 -10.5469 0.0203169
ltoes 47.7799 -0 0
rfemur -32.3872 -20.8332 -6.80284
rtibia 51.7015 -0 0
rfoot -27.3648 18.0804 0.00343803
rtoes 60.229 -0 0
lowerback -1.53713 -1.71795 -0.699762
upperback -0.683523 -2.27884 -6.7675
thorax -0.0936419 -1.16193 -6.66666
lowerneck -10.8309 0.854444 6.53
upperneck 3.23924 0.1153 2.0438
head 2.95827 0.23506 -0.472129
lclavicle 3.1008e-16 1.41082e-14 2.99198e-32
lhumerus -59.5809 -45.5259 116.811
lradius 55.2168 -0 0
lwrist 25.7337 0 0
lhand 36.4919 28.8088 0.0170816
lfingers 7.12502 -0 0
lthumb 59.4206 43.1172 0.0017216
rclavicle 3.1008e-16 1.41082e-14 2.99198e-32
rhumerus -9.13664 -30.3337 -17.0413
rradius 71.2805 -0 0
rwrist -22.8741 0 0
rhand -51.0285 -62.9032 0.193795
rfingers 7.12502 -0 0
rthumb -23.8303 90.9697 -0.61598
213
root 4.73418 15.0533 -25.5543 7.8143 -0.134994 4.49082
lfemur 3.67979 -2.8169 2.47627
ltibia 9.68959 -0 0
lfoot -34.084 -10.2306 0.0771267
ltoes 46.5227 -0 0
rfemur -32.2485 -20.8136 -6.57226
rtibia 51.4609 -0 0
rfoot -27.4542 17.8411 0.013049
rtoes 60.196 -0 0
lowerback -1.47939 -1.72046 -0.643562
upperback -0.680185 -2.2828 -6.6053
thorax -0.118185 -1.16533 -6.52825
lowerneck -10.8534 0.826723 6.42178
upperneck 3.19396 0.0945817 2.01143
head 2.94653 0.221382 -0.464903
lclavicle 6.29368e-16 1.35223e-14 1.13553e-31
lhumerus -59.4718 -45.3946 116.878
lradius 55.3205 -0 0
lwrist 25.601 0 0
lhand 36.055 28.5684 0.0648441
lfingers 7.12502 -0 0
lthumb 59.0202 43.0906 0.00653488
rclavicle 6.29368e-16 1.35223e-14 1.13553e-31
rhumerus -9.34135 -29.6091 -18.0366
rradius 72.0087 -0 0
rwrist -23.0364 0 0
rhand -49.2211 -62.409 0.73943
rfingers 7.12502 -0 0
rthumb -22.7944 89.2345 -2.3624
